<mxfile host="app.diagrams.net" modified="2020-07-03T10:39:17.579Z" agent="5.0 (Windows)" etag="UZ_2NPcjtDoFsb5iJloC" version="13.3.0" type="github">
  <diagram id="YyOWJD14Wb275RXxZn9Y" name="Page-1">
    <mxGraphModel dx="1038" dy="547" grid="1" gridSize="10" guides="1" tooltips="1" connect="1" arrows="1" fold="1" page="1" pageScale="1" pageWidth="827" pageHeight="1169" math="0" shadow="0">
      <root>
        <mxCell id="0" />
        <mxCell id="1" parent="0" />
        <mxCell id="_klwT8lkw9nOGXZvojrT-1" value="持卡人" style="rounded=1;whiteSpace=wrap;html=1;fillColor=#dae8fc;strokeColor=#6c8ebf;fontSize=17;" parent="1" vertex="1">
          <mxGeometry x="110" y="100" width="90" height="30" as="geometry" />
        </mxCell>
        <mxCell id="_klwT8lkw9nOGXZvojrT-2" value="商家" style="rounded=1;whiteSpace=wrap;html=1;fillColor=#dae8fc;strokeColor=#6c8ebf;fontSize=17;" parent="1" vertex="1">
          <mxGeometry x="280" y="100" width="90" height="30" as="geometry" />
        </mxCell>
        <mxCell id="_klwT8lkw9nOGXZvojrT-3" value="POS终端" style="rounded=1;whiteSpace=wrap;html=1;fillColor=#dae8fc;strokeColor=#6c8ebf;fontSize=17;" parent="1" vertex="1">
          <mxGeometry x="450" y="100" width="90" height="30" as="geometry" />
        </mxCell>
        <mxCell id="_klwT8lkw9nOGXZvojrT-4" value="收单平台" style="rounded=1;whiteSpace=wrap;html=1;fillColor=#dae8fc;strokeColor=#6c8ebf;fontSize=17;" parent="1" vertex="1">
          <mxGeometry x="620" y="100" width="90" height="30" as="geometry" />
        </mxCell>
        <mxCell id="_klwT8lkw9nOGXZvojrT-5" value="台新银行" style="rounded=1;whiteSpace=wrap;html=1;fillColor=#dae8fc;strokeColor=#6c8ebf;fontSize=17;" parent="1" vertex="1">
          <mxGeometry x="790" y="100" width="90" height="30" as="geometry" />
        </mxCell>
        <mxCell id="_klwT8lkw9nOGXZvojrT-6" value="" style="endArrow=none;dashed=1;html=1;fontSize=17;entryX=0.5;entryY=1;entryDx=0;entryDy=0;" parent="1" source="_klwT8lkw9nOGXZvojrT-14" target="_klwT8lkw9nOGXZvojrT-1" edge="1">
          <mxGeometry width="50" height="50" relative="1" as="geometry">
            <mxPoint x="155" y="630" as="sourcePoint" />
            <mxPoint x="180" y="170" as="targetPoint" />
          </mxGeometry>
        </mxCell>
        <mxCell id="_klwT8lkw9nOGXZvojrT-7" value="" style="endArrow=none;dashed=1;html=1;fontSize=17;entryX=0.5;entryY=1;entryDx=0;entryDy=0;" parent="1" source="_klwT8lkw9nOGXZvojrT-12" edge="1">
          <mxGeometry width="50" height="50" relative="1" as="geometry">
            <mxPoint x="320" y="630" as="sourcePoint" />
            <mxPoint x="320" y="130" as="targetPoint" />
          </mxGeometry>
        </mxCell>
        <mxCell id="_klwT8lkw9nOGXZvojrT-8" value="" style="endArrow=none;dashed=1;html=1;fontSize=17;entryX=0.5;entryY=1;entryDx=0;entryDy=0;" parent="1" source="_klwT8lkw9nOGXZvojrT-18" edge="1">
          <mxGeometry width="50" height="50" relative="1" as="geometry">
            <mxPoint x="494.5" y="630" as="sourcePoint" />
            <mxPoint x="494.5" y="130" as="targetPoint" />
          </mxGeometry>
        </mxCell>
        <mxCell id="_klwT8lkw9nOGXZvojrT-9" value="" style="endArrow=none;dashed=1;html=1;fontSize=17;entryX=0.5;entryY=1;entryDx=0;entryDy=0;" parent="1" edge="1">
          <mxGeometry width="50" height="50" relative="1" as="geometry">
            <mxPoint x="664" y="750" as="sourcePoint" />
            <mxPoint x="664.5" y="130" as="targetPoint" />
          </mxGeometry>
        </mxCell>
        <mxCell id="_klwT8lkw9nOGXZvojrT-10" value="" style="endArrow=none;dashed=1;html=1;fontSize=17;entryX=0.5;entryY=1;entryDx=0;entryDy=0;" parent="1" edge="1">
          <mxGeometry width="50" height="50" relative="1" as="geometry">
            <mxPoint x="839" y="750" as="sourcePoint" />
            <mxPoint x="840" y="130" as="targetPoint" />
          </mxGeometry>
        </mxCell>
        <mxCell id="_klwT8lkw9nOGXZvojrT-12" value="" style="rounded=0;whiteSpace=wrap;html=1;fontSize=17;fillColor=#d5e8d4;strokeColor=#82b366;" parent="1" vertex="1">
          <mxGeometry x="312" y="150" width="15" height="40" as="geometry" />
        </mxCell>
        <mxCell id="_klwT8lkw9nOGXZvojrT-13" value="" style="endArrow=none;dashed=1;html=1;fontSize=17;entryX=0.5;entryY=1;entryDx=0;entryDy=0;" parent="1" target="_klwT8lkw9nOGXZvojrT-12" edge="1">
          <mxGeometry width="50" height="50" relative="1" as="geometry">
            <mxPoint x="320" y="750" as="sourcePoint" />
            <mxPoint x="320" y="130" as="targetPoint" />
          </mxGeometry>
        </mxCell>
        <mxCell id="_klwT8lkw9nOGXZvojrT-14" value="" style="rounded=0;whiteSpace=wrap;html=1;fontSize=17;fillColor=#d5e8d4;strokeColor=#82b366;" parent="1" vertex="1">
          <mxGeometry x="147.5" y="190" width="15" height="40" as="geometry" />
        </mxCell>
        <mxCell id="_klwT8lkw9nOGXZvojrT-15" value="" style="endArrow=none;dashed=1;html=1;fontSize=17;entryX=0.5;entryY=1;entryDx=0;entryDy=0;" parent="1" target="_klwT8lkw9nOGXZvojrT-14" edge="1">
          <mxGeometry width="50" height="50" relative="1" as="geometry">
            <mxPoint x="154" y="750" as="sourcePoint" />
            <mxPoint x="155" y="130" as="targetPoint" />
          </mxGeometry>
        </mxCell>
        <mxCell id="_klwT8lkw9nOGXZvojrT-18" value="" style="rounded=0;whiteSpace=wrap;html=1;fontSize=17;fillColor=#d5e8d4;strokeColor=#82b366;" parent="1" vertex="1">
          <mxGeometry x="487.5" y="190" width="15" height="80" as="geometry" />
        </mxCell>
        <mxCell id="_klwT8lkw9nOGXZvojrT-19" value="" style="endArrow=none;dashed=1;html=1;fontSize=17;entryX=0.5;entryY=1;entryDx=0;entryDy=0;" parent="1" target="_klwT8lkw9nOGXZvojrT-18" edge="1">
          <mxGeometry width="50" height="50" relative="1" as="geometry">
            <mxPoint x="495" y="750" as="sourcePoint" />
            <mxPoint x="494.5" y="130" as="targetPoint" />
          </mxGeometry>
        </mxCell>
        <mxCell id="_klwT8lkw9nOGXZvojrT-21" value="刷卡" style="text;html=1;align=center;verticalAlign=middle;resizable=0;points=[];autosize=1;fontSize=14;" parent="1" vertex="1">
          <mxGeometry x="350" y="230" width="40" height="20" as="geometry" />
        </mxCell>
        <mxCell id="_klwT8lkw9nOGXZvojrT-22" value="" style="rounded=0;whiteSpace=wrap;html=1;fontSize=17;fillColor=#d5e8d4;strokeColor=#82b366;" parent="1" vertex="1">
          <mxGeometry x="657.5" y="270" width="15" height="150" as="geometry" />
        </mxCell>
        <mxCell id="_klwT8lkw9nOGXZvojrT-24" value="" style="endArrow=classic;html=1;fontSize=15;exitX=1;exitY=1;exitDx=0;exitDy=0;entryX=0;entryY=0;entryDx=0;entryDy=0;" parent="1" source="_klwT8lkw9nOGXZvojrT-18" target="_klwT8lkw9nOGXZvojrT-22" edge="1">
          <mxGeometry width="50" height="50" relative="1" as="geometry">
            <mxPoint x="520" y="330" as="sourcePoint" />
            <mxPoint x="570" y="280" as="targetPoint" />
          </mxGeometry>
        </mxCell>
        <mxCell id="_klwT8lkw9nOGXZvojrT-25" value="&lt;div style=&quot;font-size: 14px&quot;&gt;传递订单信息、&lt;/div&gt;&lt;div style=&quot;font-size: 14px&quot;&gt;卡BIN信息&lt;/div&gt;" style="text;html=1;align=center;verticalAlign=middle;resizable=0;points=[];autosize=1;fontSize=14;" parent="1" vertex="1">
          <mxGeometry x="530" y="230" width="110" height="40" as="geometry" />
        </mxCell>
        <mxCell id="_klwT8lkw9nOGXZvojrT-26" value="" style="curved=1;endArrow=classic;html=1;fontSize=15;exitX=1;exitY=0;exitDx=0;exitDy=0;" parent="1" source="_klwT8lkw9nOGXZvojrT-22" edge="1">
          <mxGeometry width="50" height="50" relative="1" as="geometry">
            <mxPoint x="630" y="390" as="sourcePoint" />
            <mxPoint x="675" y="309" as="targetPoint" />
            <Array as="points">
              <mxPoint x="690" y="270" />
              <mxPoint x="710" y="280" />
              <mxPoint x="710" y="290" />
              <mxPoint x="700" y="300" />
            </Array>
          </mxGeometry>
        </mxCell>
        <mxCell id="_klwT8lkw9nOGXZvojrT-27" value="授权验证" style="text;html=1;align=center;verticalAlign=middle;resizable=0;points=[];autosize=1;fontSize=14;" parent="1" vertex="1">
          <mxGeometry x="705" y="260" width="70" height="20" as="geometry" />
        </mxCell>
        <mxCell id="_klwT8lkw9nOGXZvojrT-28" value="" style="curved=1;endArrow=classic;html=1;fontSize=15;exitX=1.12;exitY=0.315;exitDx=0;exitDy=0;entryX=0.963;entryY=0.652;entryDx=0;entryDy=0;entryPerimeter=0;exitPerimeter=0;" parent="1" source="_klwT8lkw9nOGXZvojrT-22" target="_klwT8lkw9nOGXZvojrT-22" edge="1">
          <mxGeometry width="50" height="50" relative="1" as="geometry">
            <mxPoint x="672.5" y="270" as="sourcePoint" />
            <mxPoint x="675.0050000000001" y="308.97" as="targetPoint" />
            <Array as="points">
              <mxPoint x="710" y="330" />
              <mxPoint x="700" y="350" />
            </Array>
          </mxGeometry>
        </mxCell>
        <mxCell id="_klwT8lkw9nOGXZvojrT-29" value="生成订单" style="text;html=1;align=center;verticalAlign=middle;resizable=0;points=[];autosize=1;fontSize=14;" parent="1" vertex="1">
          <mxGeometry x="705" y="320" width="70" height="20" as="geometry" />
        </mxCell>
        <mxCell id="_klwT8lkw9nOGXZvojrT-30" value="" style="rounded=0;whiteSpace=wrap;html=1;fontSize=17;fillColor=#d5e8d4;strokeColor=#82b366;" parent="1" vertex="1">
          <mxGeometry x="832.5" y="422" width="15" height="80" as="geometry" />
        </mxCell>
        <mxCell id="_klwT8lkw9nOGXZvojrT-32" value="" style="endArrow=classic;html=1;fontSize=15;" parent="1" edge="1">
          <mxGeometry width="50" height="50" relative="1" as="geometry">
            <mxPoint x="670" y="420" as="sourcePoint" />
            <mxPoint x="830" y="420" as="targetPoint" />
          </mxGeometry>
        </mxCell>
        <mxCell id="_klwT8lkw9nOGXZvojrT-33" value="&lt;div&gt;&lt;br&gt;&lt;/div&gt;&lt;div&gt;调用Other API进行请款&lt;br&gt;&lt;/div&gt;" style="text;html=1;align=center;verticalAlign=middle;resizable=0;points=[];autosize=1;fontSize=14;" parent="1" vertex="1">
          <mxGeometry x="672.5" y="502" width="160" height="40" as="geometry" />
        </mxCell>
        <mxCell id="_klwT8lkw9nOGXZvojrT-34" value="" style="curved=1;endArrow=classic;html=1;fontSize=15;exitX=1;exitY=0;exitDx=0;exitDy=0;entryX=1.139;entryY=0.424;entryDx=0;entryDy=0;entryPerimeter=0;" parent="1" source="_klwT8lkw9nOGXZvojrT-30" target="_klwT8lkw9nOGXZvojrT-30" edge="1">
          <mxGeometry width="50" height="50" relative="1" as="geometry">
            <mxPoint x="672.5" y="375" as="sourcePoint" />
            <mxPoint x="672.5" y="420" as="targetPoint" />
            <Array as="points">
              <mxPoint x="880" y="440" />
            </Array>
          </mxGeometry>
        </mxCell>
        <mxCell id="_klwT8lkw9nOGXZvojrT-35" value="验证密钥" style="text;html=1;align=center;verticalAlign=middle;resizable=0;points=[];autosize=1;fontSize=15;" parent="1" vertex="1">
          <mxGeometry x="880" y="430" width="80" height="20" as="geometry" />
        </mxCell>
        <mxCell id="_klwT8lkw9nOGXZvojrT-50" value="" style="rounded=0;whiteSpace=wrap;html=1;fontSize=17;fillColor=#d5e8d4;strokeColor=#82b366;" parent="1" vertex="1">
          <mxGeometry x="487.5" y="580" width="15" height="40" as="geometry" />
        </mxCell>
        <mxCell id="_klwT8lkw9nOGXZvojrT-54" value="" style="endArrow=classic;html=1;fontSize=15;exitX=0;exitY=1;exitDx=0;exitDy=0;entryX=0.75;entryY=0;entryDx=0;entryDy=0;" parent="1" target="_klwT8lkw9nOGXZvojrT-50" edge="1">
          <mxGeometry width="50" height="50" relative="1" as="geometry">
            <mxPoint x="832.5" y="580.0000000000002" as="sourcePoint" />
            <mxPoint x="600" y="660" as="targetPoint" />
          </mxGeometry>
        </mxCell>
        <mxCell id="_klwT8lkw9nOGXZvojrT-57" value="" style="rounded=0;whiteSpace=wrap;html=1;fontSize=17;fillColor=#d5e8d4;strokeColor=#82b366;" parent="1" vertex="1">
          <mxGeometry x="147.5" y="620" width="15" height="40" as="geometry" />
        </mxCell>
        <mxCell id="_klwT8lkw9nOGXZvojrT-59" value="" style="endArrow=classic;html=1;fontSize=14;exitX=0;exitY=1;exitDx=0;exitDy=0;entryX=1;entryY=0;entryDx=0;entryDy=0;" parent="1" source="_klwT8lkw9nOGXZvojrT-50" target="_klwT8lkw9nOGXZvojrT-57" edge="1">
          <mxGeometry width="50" height="50" relative="1" as="geometry">
            <mxPoint x="370" y="670" as="sourcePoint" />
            <mxPoint x="420" y="620" as="targetPoint" />
          </mxGeometry>
        </mxCell>
        <mxCell id="_klwT8lkw9nOGXZvojrT-60" value="展示交易结果" style="text;html=1;align=center;verticalAlign=middle;resizable=0;points=[];autosize=1;fontSize=14;" parent="1" vertex="1">
          <mxGeometry x="200" y="590" width="100" height="20" as="geometry" />
        </mxCell>
        <mxCell id="_klwT8lkw9nOGXZvojrT-67" value="" style="endArrow=classic;html=1;fontSize=14;exitX=1;exitY=1;exitDx=0;exitDy=0;entryX=0;entryY=0;entryDx=0;entryDy=0;" parent="1" source="_klwT8lkw9nOGXZvojrT-12" target="_klwT8lkw9nOGXZvojrT-18" edge="1">
          <mxGeometry width="50" height="50" relative="1" as="geometry">
            <mxPoint x="210" y="310" as="sourcePoint" />
            <mxPoint x="260" y="260" as="targetPoint" />
          </mxGeometry>
        </mxCell>
        <mxCell id="_klwT8lkw9nOGXZvojrT-68" value="" style="endArrow=classic;html=1;fontSize=14;exitX=1;exitY=1;exitDx=0;exitDy=0;entryX=0;entryY=0.5;entryDx=0;entryDy=0;" parent="1" source="_klwT8lkw9nOGXZvojrT-14" target="_klwT8lkw9nOGXZvojrT-18" edge="1">
          <mxGeometry width="50" height="50" relative="1" as="geometry">
            <mxPoint x="270" y="300" as="sourcePoint" />
            <mxPoint x="320" y="250" as="targetPoint" />
          </mxGeometry>
        </mxCell>
        <mxCell id="_klwT8lkw9nOGXZvojrT-69" value="输入商品金额" style="text;html=1;align=center;verticalAlign=middle;resizable=0;points=[];autosize=1;fontSize=15;" parent="1" vertex="1">
          <mxGeometry x="350" y="165" width="110" height="20" as="geometry" />
        </mxCell>
        <mxCell id="_klwT8lkw9nOGXZvojrT-70" value="" style="curved=1;endArrow=classic;html=1;fontSize=15;exitX=1;exitY=0.5;exitDx=0;exitDy=0;entryX=1;entryY=1;entryDx=0;entryDy=0;" parent="1" source="_klwT8lkw9nOGXZvojrT-30" target="_klwT8lkw9nOGXZvojrT-30" edge="1">
          <mxGeometry width="50" height="50" relative="1" as="geometry">
            <mxPoint x="847.5" y="420" as="sourcePoint" />
            <mxPoint x="849.585" y="466.6400000000001" as="targetPoint" />
            <Array as="points">
              <mxPoint x="870" y="475" />
              <mxPoint x="870" y="503" />
            </Array>
          </mxGeometry>
        </mxCell>
        <mxCell id="_klwT8lkw9nOGXZvojrT-71" value="通过授权" style="text;html=1;align=center;verticalAlign=middle;resizable=0;points=[];autosize=1;fontSize=15;" parent="1" vertex="1">
          <mxGeometry x="880" y="480" width="80" height="20" as="geometry" />
        </mxCell>
        <mxCell id="_klwT8lkw9nOGXZvojrT-74" value="" style="rounded=0;whiteSpace=wrap;html=1;fontSize=17;fillColor=#d5e8d4;strokeColor=#82b366;" parent="1" vertex="1">
          <mxGeometry x="832.5" y="630" width="15" height="40" as="geometry" />
        </mxCell>
        <mxCell id="_klwT8lkw9nOGXZvojrT-76" value="" style="rounded=0;whiteSpace=wrap;html=1;fontSize=17;fillColor=#d5e8d4;strokeColor=#82b366;" parent="1" vertex="1">
          <mxGeometry x="657.5" y="630" width="15" height="40" as="geometry" />
        </mxCell>
        <mxCell id="_klwT8lkw9nOGXZvojrT-77" value="后台异步回传交易结果" style="text;html=1;align=center;verticalAlign=middle;resizable=0;points=[];autosize=1;fontSize=14;" parent="1" vertex="1">
          <mxGeometry x="677" y="670" width="160" height="20" as="geometry" />
        </mxCell>
        <mxCell id="_klwT8lkw9nOGXZvojrT-79" value="&lt;div&gt;根据卡Bin信息&lt;/div&gt;&lt;div&gt;选择通道&lt;/div&gt;" style="text;html=1;align=center;verticalAlign=middle;resizable=0;points=[];autosize=1;fontSize=14;" parent="1" vertex="1">
          <mxGeometry x="690" y="370" width="110" height="40" as="geometry" />
        </mxCell>
        <mxCell id="_klwT8lkw9nOGXZvojrT-80" value="" style="curved=1;endArrow=classic;html=1;fontSize=15;entryX=1;entryY=1;entryDx=0;entryDy=0;" parent="1" target="_klwT8lkw9nOGXZvojrT-22" edge="1">
          <mxGeometry width="50" height="50" relative="1" as="geometry">
            <mxPoint x="672" y="371" as="sourcePoint" />
            <mxPoint x="671.9449999999999" y="367.79999999999995" as="targetPoint" />
            <Array as="points">
              <mxPoint x="700" y="371" />
              <mxPoint x="700" y="400" />
            </Array>
          </mxGeometry>
        </mxCell>
        <mxCell id="sgQUWFWB5d-Ot5_FE12--8" value="通过请款" style="text;html=1;align=center;verticalAlign=middle;resizable=0;points=[];autosize=1;fontSize=15;" parent="1" vertex="1">
          <mxGeometry x="880" y="552" width="80" height="20" as="geometry" />
        </mxCell>
        <mxCell id="3ycuTXc6d3hMl0MZqzQu-1" value="" style="rounded=0;whiteSpace=wrap;html=1;fontSize=17;fillColor=#d5e8d4;strokeColor=#82b366;" vertex="1" parent="1">
          <mxGeometry x="657.5" y="502" width="15" height="40" as="geometry" />
        </mxCell>
        <mxCell id="3ycuTXc6d3hMl0MZqzQu-6" value="&lt;font style=&quot;font-size: 14px&quot;&gt;调用DirectAuth API授权;&lt;/font&gt;" style="text;whiteSpace=wrap;html=1;" vertex="1" parent="1">
          <mxGeometry x="670.5" y="430" width="162" height="30" as="geometry" />
        </mxCell>
        <mxCell id="3ycuTXc6d3hMl0MZqzQu-7" value="" style="endArrow=classic;html=1;exitX=0;exitY=1;exitDx=0;exitDy=0;entryX=1;entryY=0;entryDx=0;entryDy=0;" edge="1" parent="1" source="_klwT8lkw9nOGXZvojrT-30" target="3ycuTXc6d3hMl0MZqzQu-1">
          <mxGeometry width="50" height="50" relative="1" as="geometry">
            <mxPoint x="650" y="560" as="sourcePoint" />
            <mxPoint x="690" y="510" as="targetPoint" />
          </mxGeometry>
        </mxCell>
        <mxCell id="3ycuTXc6d3hMl0MZqzQu-8" value="&lt;font style=&quot;font-size: 14px&quot;&gt;返回授权结果&lt;/font&gt;" style="text;whiteSpace=wrap;html=1;" vertex="1" parent="1">
          <mxGeometry x="685.5" y="472" width="162" height="30" as="geometry" />
        </mxCell>
        <mxCell id="3ycuTXc6d3hMl0MZqzQu-9" value="" style="rounded=0;whiteSpace=wrap;html=1;fontSize=17;fillColor=#d5e8d4;strokeColor=#82b366;" vertex="1" parent="1">
          <mxGeometry x="832.5" y="542" width="15" height="40" as="geometry" />
        </mxCell>
        <mxCell id="3ycuTXc6d3hMl0MZqzQu-10" value="" style="endArrow=classic;html=1;entryX=0;entryY=0;entryDx=0;entryDy=0;exitX=1;exitY=1;exitDx=0;exitDy=0;" edge="1" parent="1" source="3ycuTXc6d3hMl0MZqzQu-1" target="3ycuTXc6d3hMl0MZqzQu-9">
          <mxGeometry width="50" height="50" relative="1" as="geometry">
            <mxPoint x="669" y="542" as="sourcePoint" />
            <mxPoint x="540" y="710" as="targetPoint" />
          </mxGeometry>
        </mxCell>
        <mxCell id="3ycuTXc6d3hMl0MZqzQu-12" value="" style="curved=1;endArrow=classic;html=1;fontSize=15;exitX=0.75;exitY=0;exitDx=0;exitDy=0;entryX=1;entryY=1;entryDx=0;entryDy=0;" edge="1" parent="1" source="3ycuTXc6d3hMl0MZqzQu-9" target="3ycuTXc6d3hMl0MZqzQu-9">
          <mxGeometry width="50" height="50" relative="1" as="geometry">
            <mxPoint x="847.5" y="462" as="sourcePoint" />
            <mxPoint x="847.5" y="502" as="targetPoint" />
            <Array as="points">
              <mxPoint x="890" y="562" />
            </Array>
          </mxGeometry>
        </mxCell>
        <mxCell id="3ycuTXc6d3hMl0MZqzQu-15" value="返回请款结果" style="text;html=1;align=center;verticalAlign=middle;resizable=0;points=[];autosize=1;fontSize=14;" vertex="1" parent="1">
          <mxGeometry x="520" y="552" width="100" height="20" as="geometry" />
        </mxCell>
        <mxCell id="3ycuTXc6d3hMl0MZqzQu-16" value="" style="endArrow=classic;html=1;exitX=0;exitY=0.5;exitDx=0;exitDy=0;entryX=1;entryY=0.5;entryDx=0;entryDy=0;" edge="1" parent="1" source="_klwT8lkw9nOGXZvojrT-74" target="_klwT8lkw9nOGXZvojrT-76">
          <mxGeometry width="50" height="50" relative="1" as="geometry">
            <mxPoint x="690" y="680" as="sourcePoint" />
            <mxPoint x="740" y="630" as="targetPoint" />
          </mxGeometry>
        </mxCell>
      </root>
    </mxGraphModel>
  </diagram>
</mxfile>
